<?xml version="1.0" encoding="utf-8"?>
<!-- Generator: Adobe Illustrator 23.0.2, SVG Export Plug-In . SVG Version: 6.00 Build 0)  -->
<svg version="1.1" id="Layer_1" xmlns="http://www.w3.org/2000/svg" xmlns:xlink="http://www.w3.org/1999/xlink" x="0px" y="0px"
	 viewBox="0 0 212.6 155.9" style="enable-background:new 0 0 212.6 155.9;" xml:space="preserve">
<style type="text/css">
	.st0{fill:#ACB237;}
	.st1{fill:#3EB549;}
	.st2{fill:#75C043;}
	.st3{fill:#004811;}
	.st4{fill:none;}
</style>
<g>
	<path class="st0" d="M129.4,87.6c0,0-0.1,0.1-0.1,0.1c0,0,0-0.1,0-0.1C129.3,87.6,129.4,87.6,129.4,87.6z"/>
	<path class="st0" d="M91.3,103.5C91.4,103.5,91.4,103.4,91.3,103.5l0.1,6.6h-6v-0.4c1-0.4,1.8-0.9,2.5-1.7c0,0,0,0,0,0
		c0,0,0.1-0.1,0.1-0.1c0.3-0.3,0.5-0.7,0.8-1.1l0.1-0.2C89.7,105.6,90.5,104.5,91.3,103.5z"/>
	<g>
		<g>
			<path class="st0" d="M91.4,103.4v6.7h-3.9c0-0.2,0-0.3,0-0.5c0.1-0.4,0.1-0.8,0.2-1.2c0-0.2,0.1-0.3,0.2-0.4c0,0,0,0,0,0
				c0,0,0.1-0.1,0.1-0.1c0.3-0.3,0.5-0.7,0.8-1.1l0.1-0.2C89.7,105.6,90.5,104.5,91.4,103.4C91.4,103.5,91.4,103.4,91.4,103.4z"/>
			<path class="st0" d="M112.3,86.2v23.9c-0.1,0-5.8,0.1-6,0v-18c0,0,0,0,0,0c-0.2,0.8-0.4,1.5-0.6,2.2s-0.4,1.5-0.6,2.3
				c-0.2,0.8-0.4,1.5-0.6,2.2c-0.2,0.8-0.4,1.5-0.6,2.3c-0.2,0.8-0.4,1.5-0.6,2.3c-0.2,0.8-0.4,1.5-0.6,2.3s-0.4,1.5-0.6,2.2
				s-0.4,1.5-0.6,2.3h-5.5c-1.5-6-3.1-12-4.6-18v8.6c-0.2-0.3-0.5-0.5-0.9-0.6c-0.4-0.1-0.8-0.3-1.2-0.5c-0.7-0.4-1.3-0.9-1.9-1.4
				c-0.3-0.3-0.6-0.5-0.9-0.8L86,97c-0.2-0.2-0.4-0.4-0.6-0.6v-2.7c0.1,0,0.2,0,0.3,0l0.2,0h0.7c0.2,0,0.5,0,0.6-0.2
				c0.2-0.2,0.1-0.4,0-0.7l-0.1-0.4c-0.1-0.3-0.2-0.7-0.3-1c-0.2-0.7-0.4-1.3-0.5-2c-0.1-0.3-0.1-0.6-0.2-0.9L86,88.2l-0.2-0.6
				c-0.1-0.3-0.2-0.6-0.2-0.8c-0.1-0.2-0.1-0.4-0.2-0.7h6v0h3.7c1.2,4.8,2.5,9.6,3.7,14.5c0.7-2.4,1.3-4.8,1.9-7.2
				c0.6-2.4,1.2-4.8,1.8-7.2C102.7,86.2,112,86.2,112.3,86.2z"/>
			<path class="st0" d="M129.4,87.6c0,0-0.1,0.1-0.1,0.1c0,0,0-0.1,0-0.1C129.3,87.6,129.4,87.6,129.4,87.6z"/>
			<path class="st0" d="M122.8,91.3v3.8c0.5,0,1.1,0,1.6,0h9.8v4.9h-11.5v4.7c0.5,0,0.9,0,1.4,0h11.3c0,0.2,0.1,5.2,0,5.4h-20.2
				V86.2h9.4c0,0.1,0,0.2-0.1,0.2c-0.1,0.3-0.2,0.7-0.2,0.9c0,0.4,0.1,0.8,0.3,1.1c0.2,0.2,0.5,0.3,0.8,0.3c0.3,0,0.5,0.1,0.7,0.3
				c0.1,0.1,0.3,0.2,0.5,0.3c0.1,0,0.1,0.1,0.2,0.1l0.1,0.1h2.2l0.1,0l0.2-0.1l0.5-0.2c0.6-0.2,0.6-0.7,0.5-0.9
				c-0.1-0.3-0.2-0.5-0.4-0.6h0.1c0.1,0,0.1,0,0.2,0c0.3,0.2,0.7,0.3,1.1,0.3c0.7,0,1.4-0.4,2-0.8c0.4-0.2,0.5-0.6,0.3-1.1h1.6v5.1
				L122.8,91.3L122.8,91.3z"/>
			<path class="st1" d="M125.3,68.8c0.1,1.4,0.2,3.1-0.4,4.8c-0.2,0.4-0.2,0.9-0.3,1.3c0,0.2-0.1,0.4-0.1,0.6s-0.1,0.4-0.1,0.6
				c-0.1,0.3-0.2,0.7-0.2,1.1c-0.1,0.5-0.2,0.9-0.2,1.4l-0.1,0.6l0,0.2c0,0.2,0,0.3-0.1,0.5c0,0.1,0,0.1,0,0.2
				c0,0.2-0.1,0.5,0.1,0.7c0.2,0.4,0.3,0.8,0.3,1.3c0,0.2,0,0.5,0.1,0.7l0,0.1c0.1,0.6,0.2,1.2,0.3,1.8c-0.7,0.3-1.5,0.5-2.3,0.6
				c-0.9,0.2-1.8,0.2-2.7,0.2c-1.2,0-2.3-0.1-3.4-0.2c-0.8-0.1-1.5-0.2-2.2-0.3c-2-0.5-3.5-1.6-4.7-3.1c-0.7-0.9-1.2-2-1.5-3.1
				c-0.2-0.7-0.3-1.5-0.4-2.2c0-0.3,0-0.6-0.1-0.9V61.1h7.4v14.6c0,0.6,0.1,1.2,0.3,1.7c0.4,1.1,1.1,1.8,2.2,2.2
				c1.1,0.4,2.1,0.4,3.2,0c1.3-0.4,2-1.2,2.4-2.5c0.1-0.5,0.2-0.9,0.2-1.4V61.2c0.1,0,0.6,0,1.1,0c0.1,0.6,0.3,1.1,0.6,1.7
				c0.1,0.3,0.2,0.5,0.3,0.8c0.1,0.4,0.3,0.8,0.5,1.2c0.1,0.2,0.2,0.5,0.3,0.8c0,0.1,0,0.2,0,0.2c-0.4,0.9-0.3,1.8-0.2,2.6
				C125.3,68.5,125.3,68.7,125.3,68.8z"/>
			<path class="st2" d="M103.6,36.2v13.4c0,1.3-0.1,2.5-0.3,3.8c-0.1,0.8-0.3,1.5-0.6,2.2c-0.5,1.1-1.2,2-2.2,2.8
				c-0.6,0.5-1.2,0.8-1.8,1.1c-0.6,0.3-1.3,0.5-2.1,0.6c-0.3,0.1-0.7,0.1-1,0.1c-0.2,0-0.4,0-0.7,0c-0.1,0-0.1,0-0.2,0
				c0,0-0.1,0-0.1,0h-0.1c-0.8,0-1.6-0.1-2.4-0.2c-0.6-0.1-1.2-0.2-1.7-0.3c-0.5-0.1-0.9-0.3-1.3-0.6c-0.9-0.6-1.7-1.4-2.3-2.4
				c-0.2-0.3-0.3-0.5-0.5-0.8c-0.3-0.7-0.6-1.4-0.7-2.2c-0.1-0.4-0.1-0.8-0.2-1.2c0-0.1,0-0.2,0.1-0.3c0,0,0,0,0,0
				c0.1,0,0.3-0.1,0.4-0.3c0.1-0.2,0-0.3-0.1-0.5c-0.1-0.1-0.1-0.2-0.2-0.2l0,0c0.1-0.1,0.1-0.2,0.1-0.3h4.8c0,0,0,0,0,0
				c0.1,0,0.2,0,0.2,0h0.7c0,0.2,0,0.4,0,0.6c0,0.5,0.1,1,0.2,1.5c0.3,0.7,0.7,1.2,1.3,1.4c0.3,0.1,0.5,0.2,0.8,0.2
				c0.2,0,0.5-0.1,0.7-0.2c0.9-0.4,1.4-1.2,1.7-2.5c0,0,0,0,0,0c0.1-0.4,0.1-0.9,0.1-1.3V36.1c0,0,0,0,0.1,0c0,0,0.1,0,0.1,0
				c0.2,0,0.4,0,0.8,0c0.2,0,0.4,0,0.6,0c0,0,0,0,0,0h0.3c0.1,0,0.1,0,0.2,0c0.1,0,0.2,0,0.3,0H99c2,0,4.5,0,4.6,0
				C103.6,36.1,103.6,36.2,103.6,36.2z"/>
			<path class="st1" d="M98.7,59.6C98.7,59.6,98.7,59.6,98.7,59.6c-0.6,0.3-1.2,0.5-1.8,0.6c-0.7,0.2-1.4,0.2-2.1,0.2h-0.1
				c0,0,0.1,0,0.1,0c0.1,0,0.1,0,0.2,0c0.2,0,0.4,0,0.7,0c0.3,0,0.7-0.1,1-0.1C97.4,60.1,98.1,59.9,98.7,59.6z"/>
			<path class="st1" d="M105.4,61.1v5.9h-7.5v18h-7.4c0,0,0,0,0,0c0,0,0,0,0,0c0,0,0,0,0,0V67.1c0,0,0,0,0,0c0,0,0,0,0,0h-7.1
				c0-0.3,0.1-0.7,0.2-1c0.1-0.3,0.1-0.6,0.2-0.9l0.1-0.6c0.2-1.1,0.3-2.2,0.4-3.4L105.4,61.1L105.4,61.1z"/>
			<path class="st2" d="M85.2,51.2c0-0.1,0-0.1,0-0.2h0C85.2,51.1,85.3,51.2,85.2,51.2z"/>
			<path class="st2" d="M85.4,52c-0.1,0-0.1,0-0.1,0c0-0.2,0-0.3,0-0.5c0.1,0.1,0.2,0.2,0.2,0.3C85.6,51.9,85.6,52,85.4,52z"/>
			<path class="st2" d="M114.5,60c-2.5,0-4.9,0-7.4,0c0-8,0-16,0-23.9c2.5,0,4.9,0,7.4,0C114.5,44,114.5,52,114.5,60z"/>
			<path d="M85.9,110.1C85.9,110.1,85.9,110.1,85.9,110.1C85.9,110.1,85.8,110.1,85.9,110.1C85.8,110.1,85.8,110.1,85.9,110.1
				C85.9,110.1,85.9,110.1,85.9,110.1z"/>
			<path class="st1" d="M97.8,36c-0.2,0-0.5,0-0.6,0c-0.3,0-0.6,0-0.8,0C96.7,36,97.3,36,97.8,36z"/>
			<path class="st1" d="M90.4,51h0.2C90.6,51,90.5,51,90.4,51C90.4,51,90.4,51,90.4,51z"/>
			<path class="st1" d="M98.3,36c-0.1,0-0.1,0-0.2,0h-0.3C98,36,98.2,36,98.3,36z"/>
		</g>
	</g>
	<g id="_x39_eHi3h.tif">
		<g>
			<g>
				<path class="st3" d="M129.3,87.6c0,0,0,0.1,0,0.1c0,0,0.1-0.1,0.1-0.1C129.4,87.6,129.3,87.6,129.3,87.6z"/>
				<path class="st4" d="M129.3,87.6c0,0,0,0.1,0,0.1c0,0,0.1-0.1,0.1-0.1C129.4,87.6,129.3,87.6,129.3,87.6z"/>
				<path class="st3" d="M146,39c-0.7-0.1-1.5-0.1-2.2-0.2c-0.2,0-0.4-0.1-0.5-0.3c-0.6-0.6-1.4-0.7-2.2-0.8h-0.1
					c-0.4,0-0.9,0.2-1.2,0.4c-0.3,0.2-0.6,0.3-0.9,0.3h-0.1c-0.7,0-1.4-0.1-2.1-0.2c-1.1-0.1-2.2-0.1-3.2-0.2
					c-0.2,0-0.5-0.1-0.7-0.1c-0.1,0-0.2-0.2-0.2-0.3c0.4-0.6,0.4-1.4,0.6-2c0-0.1,0.1-0.3,0.2-0.3c0.4-0.1,0.3-0.4,0.1-0.6
					c-0.2-0.3-0.4-0.6-0.5-0.9c-0.4-0.7-0.2-1.3,0.6-1.4c0.4-0.1,0.9-0.1,1.3-0.2c0.3,0,0.5-0.1,0.8-0.2c0.1,0,0.1-0.2,0.1-0.2
					c0-0.1-0.1-0.1-0.2-0.2c-0.3-0.1-0.6-0.2-0.9-0.4c-0.4-0.2-0.8-0.4-1.3-0.4c-0.9-0.1-1.5-0.4-1.9-1.2c-0.3-0.5-0.7-0.7-1.2-0.7
					c-0.2,0-0.4,0-0.7,0.1c-0.3,0.1-0.6,0.1-0.8,0.2c-0.7,0.3-1.4,0.7-2.1,1.1c-0.3,0.2-0.5,0.4-0.8,0.6c-0.3,0.2-0.4,0.4-0.4,0.8
					c0.1,0.5,0.1,1.1,0.2,1.6c0.1,0.3,0,0.5-0.2,0.6c-0.8,0.5-1.2,1.3-1.6,2.1c0,0.1,0,0.2,0,0.3c0.1,0,0.2,0,0.2-0.1
					c0.7-0.4,1.5-0.8,2.2-1.2c0.3-0.1,0.5-0.2,0.6-0.2c0.2,0,0.3,0.2,0.3,0.8c0,0.1,0,0.2,0,0.2c0,0.3,0,0.5-0.3,0.5
					c-0.1,0-0.1,0-0.2,0c-0.1,0-0.1,0-0.2,0c-0.2,0-0.5,0.1-0.6,0.4c-0.2,0.3-0.4,0.4-0.7,0.4c-0.1,0-0.3,0-0.4-0.1
					c-0.2-0.1-0.4-0.1-0.6-0.1c-0.5,0-1,0-1.5-0.1c-0.8-0.1-1.7-0.2-2.5-0.3c-0.3,0-0.5-0.1-0.8-0.2c-0.4-0.1-0.8-0.4-1.2-0.4
					c-0.2,0-0.4,0.1-0.6,0.2c0,0,0,0-0.1,0c-0.1,0-0.2,0-0.2,0c0,0-0.1,0-0.1,0c-0.6,0-1,0.5-0.8,1c0.1,0.3,0.2,0.5,0.4,0.8
					c0,0.1,0.1,0.2,0,0.3c-0.2,0.3-0.4,0.6-0.6,0.9v5.6c0.3,0.1,0.7,0.3,1,0.3c0.7,0.1,1.3,0.2,2,0.3c0.1,0,0.2,0,0.3,0
					c0.3,0,0.4-0.1,0.4-0.6c0-0.1,0-0.2,0-0.3c0-1.3-0.1-2.7-0.1-4c0-0.8-0.3-1.5-0.9-2c-0.1-0.1-0.1-0.2-0.2-0.2
					c0.1,0,0.1,0,0.2-0.1c0.4-0.1,0.8-0.2,1.2-0.2c0.4,0,0.8,0,1.1,0.1c0.8,0.1,1.7,0.2,2.5,0.2c0.2,0,0.4,0,0.6,0.1
					c0.2,0.1,0.4,0.1,0.2,0.4c-0.1,0.1-0.2,0.3-0.3,0.4c-1,1.2-1.5,2.6-2,4c0,0.1-0.1,0.3-0.1,0.4c-0.1,1.8,0,3.6,0.7,5.3
					c0.2,0.4,0.1,0.9,0.1,1.3c0.1,0.7,0,1.5,0.3,2.1c0.5,0.9,0.6,1.8,0.8,2.8c0.1,0.3,0.2,0.6,0.3,1c0.2,0.5,0.3,0.9,0,1.5
					c-0.2,0.3-0.2,0.8-0.3,1.2c0,0.1,0,0.2,0,0.2c-0.1,0.7,0,1.4,0.2,2c0.2,0.8,0.6,1.6,0.8,2.3c0.2,0.6,0.5,1.3,0.8,1.9
					c0.1,0.1,0.1,0.3,0.1,0.4c-0.5,1-0.2,2-0.1,3c0.2,1.7,0.1,3.3-0.4,4.9c-0.2,0.6-0.3,1.3-0.4,1.9c-0.1,0.6-0.3,1.1-0.4,1.7
					c-0.1,0.6-0.2,1.3-0.3,1.9c0,0.2-0.1,0.4-0.1,0.6c0,0.2-0.1,0.5,0,0.7c0.4,0.7,0.3,1.4,0.4,2.1c0.1,0.6,0.2,1.2,0.3,1.8
					c0.1,0.4,0.2,0.9,0.2,1.3c0,0.1,0,0.3,0,0.4c0,0.1,0,0.2-0.1,0.4c-0.1,0.3-0.1,0.6-0.2,0.8c0,0.6,0.2,1,0.8,1.1
					c0.4,0,0.7,0.2,0.9,0.4c0.2,0.2,0.4,0.3,0.7,0.4h2.1c0.2-0.1,0.5-0.2,0.8-0.3c0.2-0.1,0.4-0.2,0.3-0.5c-0.1-0.3-0.2-0.4-0.5-0.4
					c-0.2,0-0.4-0.1-0.6-0.2c0,0,0,0,0-0.1c0,0,0-0.1,0-0.1c0,0,0.1,0,0.1,0c0,0,0,0,0,0c0,0,0,0,0.1,0c0.3,0,0.6-0.2,0.9-0.2
					c0.1,0,0.2,0,0.4,0.1c0.3,0.2,0.6,0.2,0.9,0.2c0.6,0,1.2-0.3,1.8-0.8c0.3-0.2,0.3-0.5,0.1-0.8c0,0,0,0,0,0
					c-0.1-0.2-0.4-0.2-0.5-0.3c0,0-0.1,0-0.1,0c-0.1,0-0.2,0.1-0.4,0.1h-0.1c-1,0-1.8-0.5-2-1.5c-0.2-1-0.4-2-0.1-3.1
					c0.1-0.3,0.2-0.8,0-1c-0.4-0.4-0.1-0.7,0-1.1c0.4-1.1,0.9-2.1,0.6-3.3c-0.1-0.2,0.1-0.3,0.1-0.5c0.1-0.2,0.1-0.5,0.1-0.8
					c0.1-0.4,0.2-0.8,0.2-1.1c0-0.2,0.1-0.3,0.1-0.4c0-1.4,0.4-2.7,0.9-4c0.4-0.9,0.5-1.8,0.5-2.8c0-1,0.2-1.9,0.5-2.9
					c0.1-0.2,0.3-0.4,0.5-0.6c0.1-0.1,0.1-0.1,0.2-0.1c0.1,0,0.1,0.1,0.1,0.2c0,0.1,0.1,0.2,0.2,0.2c0.1-0.1,0.2-0.2,0.2-0.3
					c0.1-0.6,0.2-1.2,0.2-1.8c0-0.8,0-1.6,0-2.4c0-0.2,0-0.4,0.1-0.5c0.4-0.2,0.4-0.5,0.3-0.8c0-1.2-0.1-2.4-0.2-3.6
					c-0.1-2.2-1-4.3-0.9-6.5c0-0.1,0-0.2-0.1-0.2c-0.2-1.1-0.4-2.1-0.6-3.2c0-0.2-0.1-0.3,0.2-0.3c0.2,0,0.4-0.1,0.5-0.1
					c0,0,0,0,0.1,0c0.1,0,0.3,0,0.4,0c0.4,0,0.7-0.2,1-0.6c0.1-0.2,0.3-0.3,0.5-0.3c0.8-0.1,1.4-0.5,2-1c0.6-0.4,1.3-0.8,1.9-1.2
					c0.1-0.1,0.2-0.1,0.4-0.1c0.1,0,0.1,0,0.2,0c0.4,0.1,0.9,0.2,1.3,0.2c0.4,0,0.7-0.1,1-0.2c0,0,0,0,0.1,0c0.1,0,0.1,0,0.2,0
					c0.9,0.1,1.9,0.1,2.8,0.2h0.1c0.4,0,0.6-0.2,0.6-0.7C146.6,39.3,146.5,39,146,39z M135.8,39.8c-0.5,0-0.9,0.1-1.4,0.1h-0.1
					c-0.2,0-0.4,0-0.7-0.1c-0.1,0-0.3-0.2-0.4-0.3c0.1,0,0.2-0.1,0.4-0.1h0.6c0.4,0,1,0.1,1.6,0.2c0.1,0,0.1,0,0.2,0.1
					C135.9,39.7,135.9,39.8,135.8,39.8z"/>
			</g>
		</g>
	</g>
	<g id="Wy2kSB.tif">
		<g>
			<g>
				<g>
					<path class="st3" d="M92,101.9c0,0.1-0.1,0.2-0.1,0.3c-0.2,0.2-0.3,0.4-0.4,0.7c-0.1,0.1-0.2,0.3-0.3,0.4
						c-0.9,1-1.7,2.2-2.5,3.3c-0.1,0.1-0.2,0.3-0.3,0.4c0,0-0.1,0.1-0.1,0.1c-0.1,0.2-0.3,0.3-0.4,0.5c-0.7,0.8-1.5,1.3-2.4,1.7
						c-0.1,0.1-0.3,0.1-0.4,0.2c0,0-0.1,0-0.1,0h0c-0.2,0-0.3-0.1-0.2-0.3c0.1-0.2,0.1-0.2-0.1-0.3c-0.1,0-0.2-0.1-0.2-0.2
						c-0.2-0.2-0.2-0.2,0-0.4c0.1-0.1,0.2-0.2,0.3-0.3c0.4-0.3,0.7-0.6,0.9-0.9c0.2-0.3,0.3-0.7,0.4-1c0.1-0.3,0.1-0.7,0.2-1.1
						c0-0.2,0-0.3-0.1-0.4c-0.1-0.5,0-0.9,0.2-1.3c0.1-0.1,0.1-0.2,0.1-0.3c-0.1-0.4-0.3-0.8-0.5-1.1c-0.1-0.1-0.2-0.3-0.3-0.4
						c-0.8-1.1-1.7-2.1-2.8-2.9c-0.2-0.1-0.3-0.2-0.5-0.4c-0.1,0-0.1-0.1-0.2-0.1c0,0.1,0,0.1-0.1,0.2c-0.2,1.4-0.1,2.9-0.1,4.3
						c0,0.6,0.1,1.2,0.1,1.8c0,0.1,0,0.1,0,0.2c0,1.1,0.2,2.1,0.5,3.2c0,0.2,0.1,0.4,0.1,0.6c0.1,0.4,0.2,0.8,0.4,1.2
						c0.2,0.3,0.3,0.7,0.3,1.1c0,0.1,0,0.2,0.2,0.3c0.1,0,0.1,0.1,0,0.2c-0.1,0.1-0.2,0.2-0.3,0.2c-0.5,0.2-1,0.3-1.6,0.3
						c-0.2,0-0.4,0-0.6,0c-0.3,0-0.5-0.1-0.8-0.1c-0.4,0-0.7,0-1.1,0.1c0,0,0,0,0,0.1h-1.5c-0.1-0.1-0.3-0.1-0.5-0.1s-0.4,0-0.5,0.1
						h-1.4c-0.1-0.1-0.2-0.1-0.3-0.1c-0.1,0-0.1,0-0.2,0h-0.1c-0.5,0-1-0.1-1.5-0.2c-0.1,0-0.3-0.1-0.4-0.1c-0.2-0.1-0.2-0.3,0-0.5
						c0.1-0.1,0.1-0.1,0.1-0.2c-0.1-0.3,0.1-0.5,0.4-0.5h0.4c0.2,0,0.4,0,0.6,0h0c0.3,0,0.5-0.1,0.8-0.2c0.7-0.2,1.3-0.5,2-0.8
						c0.2-0.1,0.3-0.1,0.3-0.4c0-0.1,0.1-0.3,0.2-0.4c0.1-0.1,0.2-0.1,0.2-0.1c0.1,0,0.1,0,0.2,0.1c0,0,0.1,0.1,0.1,0.1
						c0.1,0,0.1-0.1,0.2-0.1c0.4-0.4,0.7-0.8,0.8-1.4c0.1-0.4,0.1-0.8,0.1-1.1c0-0.6-0.1-1.1-0.1-1.7c-0.1-1.5-0.6-2.9-1-4.4
						c0-0.1,0-0.2-0.1-0.2c0-0.1-0.1-0.1-0.1-0.1h-0.1c-0.8,0-1.4-0.4-2-0.9c0,0-0.1-0.1-0.1-0.1c-0.3-0.4-0.7-0.7-1.2-0.7
						c-0.1,0-0.2,0-0.3,0h-0.1c-0.1,0-0.2-0.1-0.2-0.2c-0.4-1.6-0.9-3.1-1.4-4.7c-0.1-0.2-0.1-0.3-0.2-0.5c-0.1-0.2,0-0.4-0.3-0.5
						c0,0-0.1-0.2-0.1-0.3c-0.1-0.8-0.1-1.5,0-2.3c0-0.3,0-0.6,0-0.9c0-0.5,0.1-1.1,0.1-1.6c0-1.1,0.5-2,0.7-3
						c0.2-0.7,0.3-1.3,0.5-1.9c0.1-0.2,0.1-0.4,0.2-0.6c0.2-0.5,0.3-1,0.4-1.5c0.1-0.7,0.3-1.3,0.5-2c0.3-0.9,0.6-1.8,0.8-2.8
						c0-0.1,0-0.1,0-0.2c-0.1-0.3,0-0.5,0.2-0.7c0.2-0.2,0.1-0.5,0-0.7c0,0,0,0,0,0s-0.1,0-0.1,0c-0.4,0.5-0.9,0.9-1.1,1.5
						c-0.1,0.2-0.1,0.3-0.1,0.5c0.1,0.6-0.1,1.1-0.4,1.6c-0.2,0.3-0.2,0.7-0.1,1c0,0.1,0.1,0.3,0.1,0.4c0,0.2,0,0.3-0.3,0.3
						c-0.1,0-0.1,0.1-0.1,0.2c0,0.2,0,0.3-0.2,0.3h-0.1c0,0-0.1,0-0.1,0s-0.1,0-0.1,0.1c-0.1,0.1-0.2,0.2-0.3,0.2
						c-0.1,0-0.2-0.1-0.3-0.2c-0.1-0.1-0.1-0.1-0.1-0.1s-0.1,0-0.1,0.1c-0.1,0-0.1,0.1-0.2,0.1c-0.1,0-0.2-0.1-0.4-0.2
						c-0.3-0.3-0.4-0.7-0.4-1.1c0-0.4,0-0.7,0.1-1.1c0.1-0.3,0.1-0.7,0.3-1c0.2-0.4,0.5-0.8,0.8-1.2c0.2-0.2,0.3-0.4,0.4-0.7
						c0.1-0.2,0.2-0.4,0.3-0.6c0.4-0.7,0.9-1.4,1.3-2.1c0.2-0.3,0.3-0.7,0.5-1.1c0.1-0.2,0-0.3-0.2-0.4c-0.3-0.2-0.7-0.4-1-0.6
						c-0.4-0.2-0.4-0.3-0.3-0.8c0.1-0.4,0.2-0.8,0.3-1.1c0-0.1,0.1-0.2,0.1-0.3c0-0.5,0.1-0.9,0.1-1.3c0-0.1,0-0.2,0-0.3
						c0-0.3,0-0.3-0.3-0.3c-0.2,0-0.4,0-0.5,0c-0.1,0-0.2,0-0.3,0c-0.1,0-0.2-0.1-0.3-0.1c0,0-0.1,0-0.1,0.1
						c-0.1,0.1-0.1,0.2-0.2,0.4c-0.1,0.1-0.2,0.2-0.2,0.2c-0.1,0-0.2,0-0.2-0.1c-0.3-0.3-0.3-0.5-0.1-0.9c0.3-0.4,0.5-0.8,0.8-1.1
						c0.1-0.1,0.1-0.1,0.1-0.2c0,0,0,0,0,0c-0.1-0.7-0.1-0.8,0.5-1.2c0.2-0.1,0.3-0.2,0.5-0.4c0.2-0.2,0.4-0.4,0.5-0.7
						c0.2-0.5,0.6-0.9,1.1-1.1c0.4-0.2,0.7-0.5,1-0.8c0.2-0.1,0.3-0.4,0.3-0.7c-0.1-0.4,0.1-0.7,0.4-1c0.1-0.1,0.2-0.3,0.3-0.5
						c0.1-0.2,0.2-0.4,0.3-0.6c0.1-0.2,0.2-0.3,0.4-0.4c0.2,0,0.2-0.2,0.1-0.3c-0.1-0.2-0.2-0.5-0.3-0.7c-0.1-0.1-0.2-0.2-0.3-0.2
						h-0.1c-0.2,0-0.4,0.1-0.6,0.1c-0.1,0-0.2,0-0.4,0c-0.4-0.1-0.7-0.3-0.8-0.7c0-0.2-0.1-0.4-0.3-0.4c0,0-0.1-0.1-0.1-0.1
						c0.1-0.2-0.1-0.4-0.1-0.6c0-0.1,0.1-0.1,0.1-0.2c0.1-0.1,0.2-0.1,0-0.3c-0.4-0.3-0.4-0.5-0.1-0.9c0.3-0.4,0.5-0.8,0.3-1.3
						c-0.1-0.4,0-0.8,0-1.3c0-0.3,0.2-0.6,0.4-0.9c0.1-0.1,0.2-0.2,0.2-0.4c0-0.3,0.1-0.5,0.4-0.6c0.3-0.1,0.7-0.2,1-0.3
						c0,0,0.1,0,0.1,0c0,0-0.1-0.1-0.1-0.1c-0.7-0.4-1.3-0.8-1.8-1.3c-0.2-0.2-0.4-0.4-0.5-0.6c-0.3-0.5-0.6-0.9-0.9-1.4
						c-0.1-0.2-0.2-0.5-0.3-0.8c-0.1-0.3-0.2-0.7-0.3-1c0-0.1-0.1-0.1-0.1-0.1c0,0-0.1,0-0.1,0.1c-0.1,0.1-0.2,0.2-0.3,0.3
						c-0.1,0.1-0.2,0.1-0.2,0.2c-0.4,0.2-0.8,0.3-1.3,0.5c0,0,0,0,0,0h-0.1c-0.4,0-0.7,0.2-1.1,0.3c-0.7,0.2-1.4,0.4-2.1,0.4h-0.2
						c-0.1,0-0.2,0-0.2-0.1c0-0.1,0.1-0.2,0.1-0.3c0,0,0.1-0.1,0.1-0.1c0.1-0.1,0.1-0.2,0-0.3c-0.1-0.1-0.3-0.2-0.4-0.2
						c-0.3-0.1-0.3-0.3-0.1-0.5c0.1-0.1,0.3-0.2,0.4-0.2c0,0,0.1,0,0.1,0c0.2,0.1,0.4,0.1,0.5,0.1c0.5,0,1-0.2,1.6-0.4
						c0.3-0.1,0.7-0.3,1-0.4c0.1-0.1,0.1-0.2,0-0.2c-0.7-0.3-1.3-0.6-2.1-0.6h-0.2c-0.2,0-0.3-0.1-0.1-0.3c0.1-0.1,0-0.2,0-0.3
						c-0.3-0.3-0.5-0.7-0.6-1.1c-0.1-0.4,0-0.6,0.4-0.6c0.1,0,0.2,0,0.3,0c0.2,0,0.4,0,0.6,0c0.2,0,0.3,0.1,0.5,0.1
						c0.1,0,0.3,0.1,0.4,0.1c0.1,0,0.2,0,0.3-0.1c0,0,0,0,0.1,0c0,0,0.1,0,0.1,0c0.2,0,0.3-0.1,0.3-0.3c0-0.2,0.2-0.2,0.3-0.2
						c0.3,0,0.3,0,0.2-0.3c0-0.3,0-0.5,0-0.8c0-0.2,0.1-0.2,0.2-0.2c0,0,0.1,0,0.1,0c0.1,0,0.2,0.1,0.3,0.1c0.1,0.1,0.2,0.2,0.3,0.2
						c0.1,0.1,0.1,0.1,0.2,0.1c0.1,0,0.1-0.1,0.1-0.2c0-0.1,0.1-0.2,0.2-0.2s0.1,0.1,0.2,0.1c0,0,0,0.1,0,0.1c0,0,0.1,0.1,0.1,0.1
						c0,0,0-0.1,0-0.1c-0.1-0.2-0.2-0.4-0.2-0.5c0-0.1,0-0.3,0.1-0.3c0,0,0,0,0,0c0.1,0,0.2,0,0.2,0c0.3,0,0.6-0.1,0.8-0.2
						c0.2,0,0.3,0,0.5,0c0.6,0,1.2,0.1,1.7,0.5c0.1,0.1,0.2,0.1,0.4,0.2c0,0,0.1,0,0.1,0c0.1,0,0.1-0.1,0.1-0.2c0-0.1,0-0.3,0.1-0.4
						c0-0.1,0.1-0.2,0.2-0.2c0,0,0.1,0,0.1,0c0,0,0.1,0,0.1,0s0.1,0,0.1-0.1c0,0,0.1-0.1,0.1-0.1c0.2-0.1,0.2-0.1,0.2-0.3
						c0-0.3,0-0.7,0.2-1c0.1-0.1,0.1-0.2,0.2-0.2s0.1,0,0.2,0.1c0.1,0.2,0.2,0.3,0.4,0.5c0.1,0.1,0.1,0.3,0.2,0.4
						c0,0.3,0.1,0.4,0.4,0.5c0.2,0.1,0.5,0.3,0.7,0.4c0.1,0.1,0.1,0.1,0.2,0.1s0-0.1,0.1-0.2c0.1-0.3,0.2-0.5,0.2-0.8
						c0-0.2,0-0.4,0-0.6c0,0,0-0.1,0.1-0.1c0,0,0,0,0.1,0c0,0,0.1,0,0.1,0c0.2,0.2,0.3,0.4,0.3,0.7c0,0.2,0,0.4,0.1,0.7
						c0,0.1,0,0.2,0.1,0.2c0.1,0.1,0.1,0.3,0.3,0.3c0.1,0,0.1-0.2,0.1-0.3c0-0.4,0.1-0.8,0.1-1.2c0-0.2,0-0.2,0.1-0.2
						c0,0,0.1,0,0.1,0h0.2c0.1,0,0.1,0,0.2,0c0.2,0,0.3,0.1,0.4,0.2c0.1,0.1,0.1,0.1,0.2,0.1c0.1,0,0.1,0,0.2-0.1
						c0.1-0.1,0.1-0.1,0.2-0.1c0.1,0,0.2,0.1,0.3,0.1c0.1,0.1,0.2,0.1,0.2,0.1c0.1,0,0.1-0.1,0.2-0.2c0.2-0.4,0.5-0.8,0.8-1.1
						c0.3-0.3,0.6-0.4,1-0.5c0.1,0,0.1,0,0.2,0c0.2,0,0.3,0.1,0.3,0.4c0,0.1,0,0.2,0,0.3c-0.1,0.2-0.1,0.3,0.2,0.4
						c0.2,0,0.3,0.4,0.3,0.6c0,0.2-0.1,0.3-0.2,0.5c0,0,0,0.1-0.1,0.1c0.1,0,0.1,0,0.2,0c0.2-0.1,0.4-0.3,0.6-0.4
						c0.3-0.2,0.6-0.2,1-0.3h0.1c0.1,0,0.1,0,0.2,0c0.2,0,0.3,0.2,0.2,0.4c-0.1,0.2-0.1,0.4-0.2,0.5c-0.1,0.1-0.2,0.2-0.3,0.4
						c0,0.1-0.1,0.1-0.1,0.2c0.1,0.4-0.2,0.6-0.4,0.8c-0.1,0.1-0.2,0.2-0.3,0.2c-0.2,0.2-0.2,0.2-0.1,0.4c0.1,0.2,0,0.4-0.1,0.5
						c-0.2,0.2-0.2,0.3,0,0.5c0.1,0.2,0,0.3-0.1,0.4c-0.1,0.1-0.1,0.1,0.1,0.2c0.3,0,0.6,0.2,0.8,0.4c0.3,0.3,0.4,0.7,0.4,1.1
						c0,0.6-0.1,1.1-0.3,1.7c-0.1,0.4-0.2,0.9-0.4,1.3c-0.1,0.6-0.5,1.1-0.9,1.6c-0.3,0.4-0.7,0.7-1.1,1c-0.3,0.3-0.8,0.5-1.2,0.6
						c-0.2,0.1-0.5,0.2-0.8,0.3c-0.1,0.1-0.1,0.1,0,0.2c0.2,0.2,0.4,0.3,0.7,0.5C84,47.8,84,48,84,48.2c-0.1,0.2-0.1,0.4-0.1,0.7
						c0,0.1,0,0.1,0.1,0.1c0,0,0.1,0,0.1,0c0.1-0.1,0.2-0.1,0.4-0.1h0.1c0.1,0,0.2,0,0.2,0c0,0,0.1,0.1,0.1,0.1c0,0-0.1,0.1-0.1,0.1
						c-0.2,0.1-0.4,0.1-0.6,0.2c-0.2,0.1-0.2,0.2,0,0.4c0.2,0.2,0.5,0.4,0.7,0.6c0.2,0.2,0.4,0.3,0.2,0.6c0,0,0,0.1,0.1,0.2h0
						c0,0.1,0,0.1,0,0.2c0,0-0.1,0-0.1,0.1c0,0,0,0.1,0,0.1c0,0,0.1,0.1,0.1,0.1l0.1,0.1c0,0.2,0,0.3,0,0.5c-0.1,0-0.1,0.1-0.1,0.3
						S85,52.7,85,52.9c0,0-0.1,0.1-0.1,0.1c-0.1,0.1-0.2,0.1-0.2,0.2c0,0.1,0,0.2,0,0.3c0,0.2,0,0.4,0,0.6c0,0.1,0,0.2-0.1,0.2
						c0,0-0.1,0-0.1,0c0,0-0.1,0-0.1,0c0,0-0.1,0.1-0.1,0.1c0,0.6-0.1,1.1-0.1,1.7c0,0.1,0,0.2,0,0.2c0,0.1-0.1,0.2-0.1,0.2
						c-0.1-0.1-0.1-0.1-0.2-0.2c-0.1-0.1-0.1-0.2-0.2-0.3c0,0.1,0,0.2,0,0.3c0.1,0.3,0.1,0.6,0.2,1c0,0.1,0,0.1,0,0.2
						c0,0-0.1-0.1-0.1-0.1c-0.1-0.2-0.2-0.4-0.2-0.6c-0.1-0.7-0.2-1.3-0.1-2c0-0.4,0.1-0.7-0.1-1.1c-0.1-0.2-0.1-0.3-0.2-0.5
						c0,0-0.1-0.1-0.1-0.1c0,0-0.1,0-0.1,0.1c0,0,0,0.1-0.1,0.1c-0.2,0.3-0.4,0.7-0.8,0.9c-0.1,0-0.1,0.1-0.2,0.2
						c-0.1,0.1-0.1,0.1,0,0.2c0.5,0.4,0.8,0.9,1.1,1.5c0.1,0.2,0.1,0.3,0.2,0.5c0.3,1.1,0.6,2.5,0.7,3.1c0.1,0.5,0.1,1.1,0.1,1.6
						c0,1.3-0.3,2.7-0.5,4c-0.1,0.6-0.2,1.3-0.3,1.9c-0.1,0.9,0,1.8,0.4,2.6c0.3,0.7,0.8,1.2,1,1.9c0.5,1.5,0.4,3.3-0.2,4.8
						c-0.2,0.6-0.5,1.2-0.6,1.9c-0.2,1.4,0.5,2.9,0.7,4.3c0,0.2,0,0.4-0.1,0.6c-0.2,0.6,0,1.1,0.3,1.5c0.1,0.1,0.2,0.3,0.2,0.4
						c0.2,0.6,0.3,1.2,0.4,1.8c0.1,0.2,0.1,0.4,0.2,0.6c0.1,0.3,0.2,0.5,0.2,0.8c0.1,0.4,0.2,0.8,0.3,1.3c0.1,0.7,0.3,1.3,0.5,2
						c0.1,0.4,0.2,0.9,0.4,1.3c0.1,0.4,0.1,0.4-0.3,0.4h-0.7c-0.1,0-0.3,0-0.4,0c-0.2,0-0.3,0-0.5,0.1c-0.2,0.1-0.5,0.2-0.7,0.4
						c-0.3,0.2-0.5,0.5-0.8,0.8c-0.1,0.1-0.1,0.2,0,0.3c0.4,0.4,0.8,0.8,1.2,1.2c0.2,0.2,0.5,0.5,0.7,0.7c0.3,0.2,0.6,0.5,0.8,0.8
						c0.4,0.3,0.7,0.6,1.1,0.9c0.6,0.5,1.2,0.9,1.9,1.3c0.4,0.2,0.8,0.5,1.3,0.6c0.5,0.1,0.8,0.4,0.9,0.9c0,0,0,0.1,0,0.1
						c0,0.1,0.1,0.1,0.1,0.1h0.2C92,101.6,92,101.7,92,101.9z"/>
					<path class="st3" d="M85.2,51.2c0-0.1,0-0.1,0-0.2h0C85.2,51.1,85.3,51.2,85.2,51.2z"/>
					<path class="st3" d="M85.4,52c-0.1,0-0.1,0-0.1,0c0-0.2,0-0.3,0-0.5c0.1,0.1,0.2,0.2,0.2,0.3C85.6,51.9,85.6,52,85.4,52z"/>
				</g>
			</g>
		</g>
	</g>
</g>
</svg>
